# xmcd CD database file
#
# Track frame offsets:
#	150
#	15275
#	29828
#	44907
#	60533
#	85254
#	105220
#	128807
#	144411
#	169347
#	192372
#	205766
#	223905
#	237543
#	253806
#
# Disc length: 3580 seconds
#
# Revision: 0
# Processed by: cddbd v1.5.1PL2 Copyright (c) Steve Scherf et al.
# Submitted via: CDex 1.51
#
DISCID=de0dfa0f
DTITLE=The Bebop Cowboys - Canadian Dance Hall
DYEAR=2006
DGENRE=Country
TTITLE0=Yearning (Just for You)
TTITLE1=Shooting Star
TTITLE2=Dancing on a Saturday Night
TTITLE3=Let's Give It a Shot, Let's Give It a Whirl
TTITLE4=Brain Cloudy Blues
TTITLE5=Jump for Joy
TTITLE6=Stardust
TTITLE7=That's Why I Ain't Been Home in Years
TTITLE8=Caravan
TTITLE9=Misery
TTITLE10=I Laugh When I Think (How I Cried Over You)
TTITLE11=Swinging With Grace
TTITLE12=Fat Boy Rag
TTITLE13=Like It was Just the Other Day
TTITLE14=Bebop Cowboys Theme (Swingin' Honky Tonkin' Cowboy Blues)
EXTD=YEAR: 2006
EXTT0=
EXTT1=
EXTT2=
EXTT3=
EXTT4=
EXTT5=
EXTT6=
EXTT7=
EXTT8=
EXTT9=
EXTT10=
EXTT11=
EXTT12=
EXTT13=
EXTT14=
PLAYORDER=
